# xmcd
# 
# Track frame offsets:
#     150
#     17661
#     34313
#     50655
# 
# Disc length: 826
# 
# Revision: 0
# Processed by: cddbd v1.5.2PL0 Copyright (c) Steve Scherf et al.
# Submitted via: fre:ac v1.0.17
# 
DISCID=2e033804
DTITLE=Sloan - Money City Maniacs
DYEAR=1998
DGENRE=
TTITLE0=Money City Maniacs
TTITLE1=I Am The Cancer
TTITLE2=People Of The Sky
TTITLE3=The Lines You Amend
EXTD=
EXTT0=
EXTT1=
EXTT2=
EXTT3=
PLAYORDER=
